<svg xmlns="http://www.w3.org/2000/svg" width="24" height="24" fill="none" stroke="currentColor" stroke-linejoin="round" stroke-width="2" aria-hidden="true" viewBox="0 0 24 24"><path fill="currentColor" fill-opacity=".4" stroke="none" d="M2 3h20a1 1 0 0 1 1 1v5a1 1 0 0 1-1 1c-1.243 0-2 .757-2 2s.757 2 2 2a1 1 0 0 1 1 1v5a1 1 0 0 1-1 1H2a1 1 0 0 1-1-1v-5a1 1 0 0 1 1-1c1.243 0 2-.757 2-2s-.757-2-2-2a1 1 0 0 1-1-1V4a1 1 0 0 1 1-1"/><path d="M2 4h20v5a3 3 0 0 0 0 6v5H2v-5a3 3 0 0 0 0-6zm6.707 11.293 6.586-6.586"/><path fill="currentColor" stroke="none" d="M10.5 8.5a1.5 1.5 0 1 1-3 0 1.5 1.5 0 0 1 3 0m6 7a1.5 1.5 0 1 1-3 0 1.5 1.5 0 0 1 3 0"/></svg>
